<mxfile host="app.diagrams.net" modified="2022-02-21T03:51:37.719Z" agent="5.0 (Macintosh; Intel Mac OS X 10_15_7) AppleWebKit/537.36 (KHTML, like Gecko) Chrome/98.0.4758.102 Safari/537.36" etag="PZBizwQcMr4O48oPEjF8" version="16.6.1" type="github">
  <diagram id="4QviqOlzrhN-AOu0C9Wr" name="Page-1">
    <mxGraphModel dx="3250" dy="633" grid="1" gridSize="10" guides="1" tooltips="1" connect="1" arrows="1" fold="1" page="1" pageScale="1" pageWidth="827" pageHeight="1169" math="0" shadow="0">
      <root>
        <mxCell id="0" />
        <mxCell id="1" parent="0" />
        <mxCell id="zBENLTDvliEKUnQSYh8p-1" value="broadway" style="rounded=0;whiteSpace=wrap;html=1;" parent="1" vertex="1">
          <mxGeometry x="-70" y="170" width="120" height="60" as="geometry" />
        </mxCell>
        <mxCell id="zBENLTDvliEKUnQSYh8p-3" value="" style="shape=singleArrow;whiteSpace=wrap;html=1;" parent="1" vertex="1">
          <mxGeometry x="50" y="170" width="100" height="60" as="geometry" />
        </mxCell>
        <mxCell id="j4wnp2hjBvypyyQirYfj-2" value="" style="edgeStyle=orthogonalEdgeStyle;rounded=0;orthogonalLoop=1;jettySize=auto;html=1;" edge="1" parent="1" source="zBENLTDvliEKUnQSYh8p-4" target="j4wnp2hjBvypyyQirYfj-1">
          <mxGeometry relative="1" as="geometry">
            <Array as="points">
              <mxPoint x="-1940" y="220" />
              <mxPoint x="-1940" y="220" />
            </Array>
          </mxGeometry>
        </mxCell>
        <mxCell id="j4wnp2hjBvypyyQirYfj-20" style="edgeStyle=orthogonalEdgeStyle;rounded=0;orthogonalLoop=1;jettySize=auto;html=1;exitX=1;exitY=0;exitDx=0;exitDy=0;" edge="1" parent="1" source="zBENLTDvliEKUnQSYh8p-4" target="j4wnp2hjBvypyyQirYfj-10">
          <mxGeometry relative="1" as="geometry">
            <Array as="points">
              <mxPoint x="-2040" y="115" />
            </Array>
          </mxGeometry>
        </mxCell>
        <mxCell id="j4wnp2hjBvypyyQirYfj-31" style="edgeStyle=orthogonalEdgeStyle;rounded=0;orthogonalLoop=1;jettySize=auto;html=1;entryX=0;entryY=0.75;entryDx=0;entryDy=0;endArrow=classic;endFill=1;exitX=1;exitY=1;exitDx=0;exitDy=0;" edge="1" parent="1" source="zBENLTDvliEKUnQSYh8p-4" target="j4wnp2hjBvypyyQirYfj-14">
          <mxGeometry relative="1" as="geometry">
            <Array as="points">
              <mxPoint x="-2040" y="350" />
            </Array>
          </mxGeometry>
        </mxCell>
        <mxCell id="j4wnp2hjBvypyyQirYfj-32" style="edgeStyle=orthogonalEdgeStyle;rounded=0;orthogonalLoop=1;jettySize=auto;html=1;entryX=0;entryY=0.75;entryDx=0;entryDy=0;endArrow=classic;endFill=1;" edge="1" parent="1" source="zBENLTDvliEKUnQSYh8p-4" target="j4wnp2hjBvypyyQirYfj-12">
          <mxGeometry relative="1" as="geometry">
            <Array as="points">
              <mxPoint x="-2040" y="470" />
            </Array>
          </mxGeometry>
        </mxCell>
        <mxCell id="zBENLTDvliEKUnQSYh8p-4" value="merger" style="rounded=0;whiteSpace=wrap;html=1;" parent="1" vertex="1">
          <mxGeometry x="-2180" y="190" width="140" height="60" as="geometry" />
        </mxCell>
        <mxCell id="zBENLTDvliEKUnQSYh8p-8" style="edgeStyle=orthogonalEdgeStyle;rounded=0;orthogonalLoop=1;jettySize=auto;html=1;exitX=0;exitY=0.5;exitDx=0;exitDy=0;" parent="1" source="zBENLTDvliEKUnQSYh8p-5" edge="1">
          <mxGeometry relative="1" as="geometry">
            <mxPoint x="160" y="200.39999999999998" as="targetPoint" />
          </mxGeometry>
        </mxCell>
        <mxCell id="zBENLTDvliEKUnQSYh8p-5" value="merger" style="rounded=0;whiteSpace=wrap;html=1;" parent="1" vertex="1">
          <mxGeometry x="150" y="170" width="120" height="60" as="geometry" />
        </mxCell>
        <mxCell id="zBENLTDvliEKUnQSYh8p-9" style="edgeStyle=orthogonalEdgeStyle;rounded=0;orthogonalLoop=1;jettySize=auto;html=1;exitX=0;exitY=0;exitDx=40;exitDy=39;exitPerimeter=0;" parent="1" source="zBENLTDvliEKUnQSYh8p-6" edge="1">
          <mxGeometry relative="1" as="geometry">
            <mxPoint x="340" y="200" as="targetPoint" />
          </mxGeometry>
        </mxCell>
        <mxCell id="zBENLTDvliEKUnQSYh8p-6" value="" style="shape=singleArrow;whiteSpace=wrap;html=1;" parent="1" vertex="1">
          <mxGeometry x="270" y="170" width="100" height="60" as="geometry" />
        </mxCell>
        <mxCell id="zBENLTDvliEKUnQSYh8p-7" value="searcher" style="rounded=0;whiteSpace=wrap;html=1;shadow=1;" parent="1" vertex="1">
          <mxGeometry x="370" y="170" width="120" height="60" as="geometry" />
        </mxCell>
        <mxCell id="j4wnp2hjBvypyyQirYfj-55" value="" style="edgeStyle=orthogonalEdgeStyle;rounded=0;orthogonalLoop=1;jettySize=auto;html=1;endArrow=classic;endFill=1;" edge="1" parent="1" source="j4wnp2hjBvypyyQirYfj-1" target="j4wnp2hjBvypyyQirYfj-54">
          <mxGeometry relative="1" as="geometry" />
        </mxCell>
        <mxCell id="j4wnp2hjBvypyyQirYfj-1" value="searcher&lt;br&gt;partition&lt;br&gt;2" style="rounded=0;whiteSpace=wrap;html=1;" vertex="1" parent="1">
          <mxGeometry x="-1921" y="197.5" width="81" height="52.5" as="geometry" />
        </mxCell>
        <mxCell id="j4wnp2hjBvypyyQirYfj-3" value="request" style="ellipse;whiteSpace=wrap;html=1;" vertex="1" parent="1">
          <mxGeometry x="-2260" y="180" width="70" height="40" as="geometry" />
        </mxCell>
        <mxCell id="j4wnp2hjBvypyyQirYfj-5" value="" style="edgeStyle=orthogonalEdgeStyle;rounded=0;orthogonalLoop=1;jettySize=auto;html=1;" edge="1" parent="1" source="j4wnp2hjBvypyyQirYfj-4" target="zBENLTDvliEKUnQSYh8p-4">
          <mxGeometry relative="1" as="geometry" />
        </mxCell>
        <mxCell id="j4wnp2hjBvypyyQirYfj-4" value="broadway" style="rounded=0;whiteSpace=wrap;html=1;" vertex="1" parent="1">
          <mxGeometry x="-2390" y="190" width="120" height="60" as="geometry" />
        </mxCell>
        <mxCell id="j4wnp2hjBvypyyQirYfj-53" value="" style="edgeStyle=orthogonalEdgeStyle;rounded=0;orthogonalLoop=1;jettySize=auto;html=1;endArrow=classic;endFill=1;" edge="1" parent="1" source="j4wnp2hjBvypyyQirYfj-10" target="j4wnp2hjBvypyyQirYfj-52">
          <mxGeometry relative="1" as="geometry" />
        </mxCell>
        <mxCell id="j4wnp2hjBvypyyQirYfj-10" value="searcher&lt;br&gt;partition&lt;br&gt;1" style="rounded=0;whiteSpace=wrap;html=1;" vertex="1" parent="1">
          <mxGeometry x="-1920" y="100" width="80" height="50" as="geometry" />
        </mxCell>
        <mxCell id="j4wnp2hjBvypyyQirYfj-59" value="" style="edgeStyle=orthogonalEdgeStyle;rounded=0;orthogonalLoop=1;jettySize=auto;html=1;endArrow=classic;endFill=1;" edge="1" parent="1" source="j4wnp2hjBvypyyQirYfj-12" target="j4wnp2hjBvypyyQirYfj-58">
          <mxGeometry relative="1" as="geometry" />
        </mxCell>
        <mxCell id="j4wnp2hjBvypyyQirYfj-12" value="searcher&lt;br&gt;partition&lt;br&gt;4" style="rounded=0;whiteSpace=wrap;html=1;" vertex="1" parent="1">
          <mxGeometry x="-1921" y="440" width="71" height="60" as="geometry" />
        </mxCell>
        <mxCell id="j4wnp2hjBvypyyQirYfj-57" value="" style="edgeStyle=orthogonalEdgeStyle;rounded=0;orthogonalLoop=1;jettySize=auto;html=1;endArrow=classic;endFill=1;" edge="1" parent="1" source="j4wnp2hjBvypyyQirYfj-14" target="j4wnp2hjBvypyyQirYfj-56">
          <mxGeometry relative="1" as="geometry" />
        </mxCell>
        <mxCell id="j4wnp2hjBvypyyQirYfj-14" value="searcher&lt;br&gt;partition&lt;br&gt;3" style="rounded=0;whiteSpace=wrap;html=1;" vertex="1" parent="1">
          <mxGeometry x="-1921" y="320" width="81" height="60" as="geometry" />
        </mxCell>
        <mxCell id="j4wnp2hjBvypyyQirYfj-39" value="request" style="ellipse;whiteSpace=wrap;html=1;" vertex="1" parent="1">
          <mxGeometry x="-2260" y="180" width="70" height="40" as="geometry" />
        </mxCell>
        <mxCell id="j4wnp2hjBvypyyQirYfj-40" value="request" style="ellipse;whiteSpace=wrap;html=1;" vertex="1" parent="1">
          <mxGeometry x="-2010" y="70" width="70" height="40" as="geometry" />
        </mxCell>
        <mxCell id="j4wnp2hjBvypyyQirYfj-41" value="request" style="ellipse;whiteSpace=wrap;html=1;" vertex="1" parent="1">
          <mxGeometry x="-2010" y="180" width="70" height="40" as="geometry" />
        </mxCell>
        <mxCell id="j4wnp2hjBvypyyQirYfj-42" value="request" style="ellipse;whiteSpace=wrap;html=1;" vertex="1" parent="1">
          <mxGeometry x="-2010" y="310" width="70" height="40" as="geometry" />
        </mxCell>
        <mxCell id="j4wnp2hjBvypyyQirYfj-43" value="request" style="ellipse;whiteSpace=wrap;html=1;" vertex="1" parent="1">
          <mxGeometry x="-2010" y="430" width="70" height="40" as="geometry" />
        </mxCell>
        <mxCell id="j4wnp2hjBvypyyQirYfj-61" value="" style="edgeStyle=orthogonalEdgeStyle;rounded=0;orthogonalLoop=1;jettySize=auto;html=1;endArrow=classic;endFill=1;" edge="1" parent="1" source="j4wnp2hjBvypyyQirYfj-52" target="j4wnp2hjBvypyyQirYfj-60">
          <mxGeometry relative="1" as="geometry" />
        </mxCell>
        <mxCell id="j4wnp2hjBvypyyQirYfj-52" value="result1" style="ellipse;whiteSpace=wrap;html=1;rounded=0;" vertex="1" parent="1">
          <mxGeometry x="-1780" y="95" width="120" height="60" as="geometry" />
        </mxCell>
        <mxCell id="j4wnp2hjBvypyyQirYfj-62" value="" style="edgeStyle=orthogonalEdgeStyle;rounded=0;orthogonalLoop=1;jettySize=auto;html=1;endArrow=classic;endFill=1;" edge="1" parent="1" source="j4wnp2hjBvypyyQirYfj-54" target="j4wnp2hjBvypyyQirYfj-60">
          <mxGeometry relative="1" as="geometry" />
        </mxCell>
        <mxCell id="j4wnp2hjBvypyyQirYfj-54" value="result2" style="ellipse;whiteSpace=wrap;html=1;rounded=0;" vertex="1" parent="1">
          <mxGeometry x="-1779.5" y="193.75" width="120" height="60" as="geometry" />
        </mxCell>
        <mxCell id="j4wnp2hjBvypyyQirYfj-63" style="edgeStyle=orthogonalEdgeStyle;rounded=0;orthogonalLoop=1;jettySize=auto;html=1;endArrow=classic;endFill=1;entryX=0.5;entryY=1;entryDx=0;entryDy=0;" edge="1" parent="1" source="j4wnp2hjBvypyyQirYfj-56" target="j4wnp2hjBvypyyQirYfj-60">
          <mxGeometry relative="1" as="geometry">
            <mxPoint x="-1490" y="270" as="targetPoint" />
          </mxGeometry>
        </mxCell>
        <mxCell id="j4wnp2hjBvypyyQirYfj-56" value="result3" style="ellipse;whiteSpace=wrap;html=1;rounded=0;" vertex="1" parent="1">
          <mxGeometry x="-1779.5" y="320" width="120" height="60" as="geometry" />
        </mxCell>
        <mxCell id="j4wnp2hjBvypyyQirYfj-67" style="edgeStyle=orthogonalEdgeStyle;rounded=0;orthogonalLoop=1;jettySize=auto;html=1;entryX=1;entryY=0.5;entryDx=0;entryDy=0;endArrow=classic;endFill=1;" edge="1" parent="1" source="j4wnp2hjBvypyyQirYfj-58" target="j4wnp2hjBvypyyQirYfj-60">
          <mxGeometry relative="1" as="geometry" />
        </mxCell>
        <mxCell id="j4wnp2hjBvypyyQirYfj-58" value="result4" style="ellipse;whiteSpace=wrap;html=1;rounded=0;" vertex="1" parent="1">
          <mxGeometry x="-1794.5" y="440" width="120" height="60" as="geometry" />
        </mxCell>
        <mxCell id="j4wnp2hjBvypyyQirYfj-60" value="merger" style="whiteSpace=wrap;html=1;rounded=0;" vertex="1" parent="1">
          <mxGeometry x="-1550" y="193.75" width="120" height="60" as="geometry" />
        </mxCell>
      </root>
    </mxGraphModel>
  </diagram>
</mxfile>
